<?xml version="1.0" encoding="utf-8"?>
<!-- Generator: Adobe Illustrator 23.0.1, SVG Export Plug-In . SVG Version: 6.00 Build 0)  -->
<svg version="1.1" xmlns="http://www.w3.org/2000/svg" xmlns:xlink="http://www.w3.org/1999/xlink" x="0px" y="0px"
	 viewBox="0 0 500 500" style="enable-background:new 0 0 500 500;" xml:space="preserve">
<style type="text/css">
	.st0{display:none;}
	.st1{display:inline;fill:#2B2B2A;stroke:#231E1B;stroke-miterlimit:10;}
	.st2{fill:#A85C2A;}
	.st3{fill:#ED6C23;}
	.st4{fill:#A95D29;}
	.st5{display:inline;}
</style>
<g id="Backgrund" class="st0">
	<rect x="0.5" y="-0.5" class="st1" width="500" height="500"/>
</g>
<g id="Logo">
	<g id="Romb_1_">
		<g>
			<path class="st2" d="M197.7,30.96l260.85,159.36L299.18,451.17L38.33,291.81L197.7,30.96 M191.72,6.22L13.59,297.79
				l291.57,178.13l178.13-291.57L191.72,6.22L191.72,6.22z"/>
		</g>
		<g>
			<path class="st3" d="M210.79,28.23l250.49,175.2l-175.2,250.49L35.6,278.72L210.79,28.23 M206.36,3.16L10.53,283.15
				l279.99,195.83l195.83-279.99L206.36,3.16L206.36,3.16z"/>
		</g>
	</g>
	<g id="F4">
		<g>
			<path class="st4" d="M128.95,326.04V175.69h106.99v17.34h-83.91v51.8h71.6v17.34h-71.6v63.87H128.95z"/>
			<path class="st4" d="M329.92,326.04v-46.29h-72.3V260.3l72.3-107.7h21.68v109.8h23.09v17.34H351.6v46.29H329.92z M277.07,262.41
				h52.85v-78.75L277.07,262.41z"/>
		</g>
		<g>
			<path class="st3" d="M128.95,321.04V170.69h106.99v17.34h-83.91v51.8h71.6v17.34h-71.6v63.87H128.95z"/>
			<path class="st3" d="M329.92,321.04v-46.29h-72.3V255.3l72.3-107.7h21.68v109.8h23.09v17.34H351.6v46.29H329.92z M277.07,257.41
				h52.85v-78.75L277.07,257.41z"/>
		</g>
	</g>
	<g id="Hamburger" class="st0">
		<g class="st5">
			<g>
				<path class="st2" d="M101.27,153.34c80.19,0,160.39,0,240.58,0c22.53,0,45.07,0,67.6,0c15.69,0,30.73-13.8,30-30
					c-0.73-16.25-13.18-30-30-30c-80.19,0-160.39,0-240.58,0c-22.53,0-45.07,0-67.6,0c-15.69,0-30.73,13.8-30,30
					C72,139.59,84.46,153.34,101.27,153.34L101.27,153.34z"/>
			</g>
		</g>
		<g class="st5">
			<g>
				<path class="st3" d="M101.27,144.34c80.19,0,160.39,0,240.58,0c22.53,0,45.07,0,67.6,0c15.69,0,30.73-13.8,30-30
					c-0.73-16.25-13.18-30-30-30c-80.19,0-160.39,0-240.58,0c-22.53,0-45.07,0-67.6,0c-15.69,0-30.73,13.8-30,30
					C72,130.59,84.46,144.34,101.27,144.34L101.27,144.34z"/>
			</g>
		</g>
		<g class="st5">
			<g>
				<path class="st2" d="M102.27,279.34c80.19,0,160.39,0,240.58,0c22.53,0,45.07,0,67.6,0c15.69,0,30.73-13.8,30-30
					c-0.73-16.25-13.18-30-30-30c-80.19,0-160.39,0-240.58,0c-22.53,0-45.07,0-67.6,0c-15.69,0-30.73,13.8-30,30
					C73,265.59,85.46,279.34,102.27,279.34L102.27,279.34z"/>
			</g>
		</g>
		<g class="st5">
			<g>
				<path class="st3" d="M102.27,270.34c80.19,0,160.39,0,240.58,0c22.53,0,45.07,0,67.6,0c15.69,0,30.73-13.8,30-30
					c-0.73-16.25-13.18-30-30-30c-80.19,0-160.39,0-240.58,0c-22.53,0-45.07,0-67.6,0c-15.69,0-30.73,13.8-30,30
					C73,256.59,85.46,270.34,102.27,270.34L102.27,270.34z"/>
			</g>
		</g>
		<g class="st5">
			<g>
				<path class="st2" d="M101.27,405.34c80.19,0,160.39,0,240.58,0c22.53,0,45.07,0,67.6,0c15.69,0,30.73-13.8,30-30
					c-0.73-16.25-13.18-30-30-30c-80.19,0-160.39,0-240.58,0c-22.53,0-45.07,0-67.6,0c-15.69,0-30.73,13.8-30,30
					C72,391.59,84.46,405.34,101.27,405.34L101.27,405.34z"/>
			</g>
		</g>
		<g class="st5">
			<g>
				<path class="st3" d="M101.27,396.34c80.19,0,160.39,0,240.58,0c22.53,0,45.07,0,67.6,0c15.69,0,30.73-13.8,30-30
					c-0.73-16.25-13.18-30-30-30c-80.19,0-160.39,0-240.58,0c-22.53,0-45.07,0-67.6,0c-15.69,0-30.73,13.8-30,30
					C72,382.59,84.46,396.34,101.27,396.34L101.27,396.34z"/>
			</g>
		</g>
	</g>
</g>
</svg>
