<?xml version="1.0" encoding="utf-8"?>
<!-- Generator: Adobe Illustrator 23.0.1, SVG Export Plug-In . SVG Version: 6.00 Build 0)  -->
<svg version="1.1"
	 id="SVGRoot" xmlns:cc="http://creativecommons.org/ns#" xmlns:dc="http://purl.org/dc/elements/1.1/" xmlns:inkscape="http://www.inkscape.org/namespaces/inkscape" xmlns:rdf="http://www.w3.org/1999/02/22-rdf-syntax-ns#" xmlns:sodipodi="http://sodipodi.sourceforge.net/DTD/sodipodi-0.dtd" xmlns:svg="http://www.w3.org/2000/svg"
	 xmlns="http://www.w3.org/2000/svg" xmlns:xlink="http://www.w3.org/1999/xlink" x="0px" y="0px" viewBox="0 0 64 64"
	 style="enable-background:new 0 0 64 64;" xml:space="preserve">
<style type="text/css">
	.st0{fill:none;stroke:#FF6C10;stroke-width:3;stroke-linecap:round;stroke-linejoin:round;}
	.st1{fill:none;stroke:#FF6C10;stroke-width:3;}
</style>
<g id="layer1">
	<g id="g5168" transform="translate(36.000004,-27.250001)">
		<polygon id="polygon215" class="st0" points="25.9,31.5 25.9,71.2 -33.9,71.2 -33.9,31.5 		"/>
		<line id="line217" class="st0" x1="-28.2" y1="65.6" x2="20.2" y2="65.6"/>
		<polygon id="polygon219" class="st0" points="1.6,71.2 1.6,80.6 -9.6,80.6 -9.6,71.2 		"/>
		<polyline id="polyline221" class="st0" points="1.6,76.1 4.9,76.1 7.5,87 -15.5,87 -13.1,76.1 -9.9,76.1 		"/>
		<path id="path223" class="st1" d="M0.1,71.2c0,2.3-1.8,4.1-4.1,4.1s-4.1-1.7-4.1-4.1"/>
		<polyline id="polyline225" class="st0" points="-25.9,60.8 -17.4,52.3 -11,57.7 -4,50.4 1.6,54.9 17.1,39.4 		"/>
	</g>
</g>
</svg>
